<svg width="22" height="939" viewBox="0 0 22 939" fill="none" xmlns="http://www.w3.org/2000/svg">
<circle cx="10.9091" cy="731.636" r="10.9091" transform="rotate(-90 10.9091 731.636)" fill="white"/>
<circle cx="10.9091" cy="338.909" r="10.9091" transform="rotate(-90 10.9091 338.909)" fill="white"/>
<circle cx="10.9091" cy="600.727" r="10.9091" transform="rotate(-90 10.9091 600.727)" fill="white"/>
<circle cx="10.9091" cy="208" r="10.9091" transform="rotate(-90 10.9091 208)" fill="white"/>
<circle cx="10.9091" cy="862.545" r="10.9091" transform="rotate(-90 10.9091 862.545)" fill="white"/>
<circle cx="10.9091" cy="469.818" r="10.9091" transform="rotate(-90 10.9091 469.818)" fill="white"/>
<circle cx="10.9091" cy="77.0909" r="10.9091" transform="rotate(-90 10.9091 77.0909)" fill="white"/>
<circle cx="10.9091" cy="698.909" r="10.9091" transform="rotate(-90 10.9091 698.909)" fill="white"/>
<circle cx="10.9091" cy="306.182" r="10.9091" transform="rotate(-90 10.9091 306.182)" fill="white"/>
<circle cx="10.9091" cy="568" r="10.9091" transform="rotate(-90 10.9091 568)" fill="white"/>
<circle cx="10.9091" cy="175.273" r="10.9091" transform="rotate(-90 10.9091 175.273)" fill="white"/>
<circle cx="10.9091" cy="829.818" r="10.9091" transform="rotate(-90 10.9091 829.818)" fill="white"/>
<circle cx="10.9091" cy="437.091" r="10.9091" transform="rotate(-90 10.9091 437.091)" fill="white"/>
<circle cx="10.9091" cy="44.3639" r="10.9091" transform="rotate(-90 10.9091 44.3639)" fill="white"/>
<circle cx="10.9091" cy="666.182" r="10.9091" transform="rotate(-90 10.9091 666.182)" fill="white"/>
<circle cx="10.9091" cy="273.455" r="10.9091" transform="rotate(-90 10.9091 273.455)" fill="white"/>
<circle cx="10.9091" cy="928" r="10.9091" transform="rotate(-90 10.9091 928)" fill="white"/>
<circle cx="10.9091" cy="535.273" r="10.9091" transform="rotate(-90 10.9091 535.273)" fill="white"/>
<circle cx="10.9091" cy="142.546" r="10.9091" transform="rotate(-90 10.9091 142.546)" fill="white"/>
<circle cx="10.9091" cy="797.091" r="10.9091" transform="rotate(-90 10.9091 797.091)" fill="white"/>
<circle cx="10.9091" cy="404.364" r="10.9091" transform="rotate(-90 10.9091 404.364)" fill="white"/>
<circle cx="10.9091" cy="11.6368" r="10.9091" transform="rotate(-90 10.9091 11.6368)" fill="white"/>
<circle cx="10.9091" cy="633.455" r="10.9091" transform="rotate(-90 10.9091 633.455)" fill="white"/>
<circle cx="10.9091" cy="240.728" r="10.9091" transform="rotate(-90 10.9091 240.728)" fill="white"/>
<circle cx="10.9091" cy="895.273" r="10.9091" transform="rotate(-90 10.9091 895.273)" fill="white"/>
<circle cx="10.9091" cy="502.546" r="10.9091" transform="rotate(-90 10.9091 502.546)" fill="white"/>
<circle cx="10.9091" cy="109.818" r="10.9091" transform="rotate(-90 10.9091 109.818)" fill="white"/>
<circle cx="10.9091" cy="764.364" r="10.9091" transform="rotate(-90 10.9091 764.364)" fill="white"/>
<circle cx="10.9091" cy="371.637" r="10.9091" transform="rotate(-90 10.9091 371.637)" fill="white"/>
</svg>
