<svg width="25" height="1375" viewBox="0 0 25 1375" fill="none" xmlns="http://www.w3.org/2000/svg">
<circle cx="12.5" cy="1325" r="12.5" transform="rotate(-90 12.5 1325)" fill="white"/>
<circle cx="12.5" cy="1362.5" r="12.5" transform="rotate(-90 12.5 1362.5)" fill="white"/>
<circle cx="12.5" cy="875" r="12.5" transform="rotate(-90 12.5 875)" fill="white"/>
<circle cx="12.5" cy="425" r="12.5" transform="rotate(-90 12.5 425)" fill="white"/>
<circle cx="12.5" cy="1175" r="12.5" transform="rotate(-90 12.5 1175)" fill="white"/>
<circle cx="12.5" cy="725" r="12.5" transform="rotate(-90 12.5 725)" fill="white"/>
<circle cx="12.5" cy="275" r="12.5" transform="rotate(-90 12.5 275)" fill="white"/>
<circle cx="12.5" cy="1025" r="12.5" transform="rotate(-90 12.5 1025)" fill="white"/>
<circle cx="12.5" cy="575" r="12.5" transform="rotate(-90 12.5 575)" fill="white"/>
<circle cx="12.5" cy="125" r="12.5" transform="rotate(-90 12.5 125)" fill="white"/>
<circle cx="12.5" cy="1287.5" r="12.5" transform="rotate(-90 12.5 1287.5)" fill="white"/>
<circle cx="12.5" cy="837.5" r="12.5" transform="rotate(-90 12.5 837.5)" fill="white"/>
<circle cx="12.5" cy="387.5" r="12.5" transform="rotate(-90 12.5 387.5)" fill="white"/>
<circle cx="12.5" cy="1137.5" r="12.5" transform="rotate(-90 12.5 1137.5)" fill="white"/>
<circle cx="12.5" cy="687.5" r="12.5" transform="rotate(-90 12.5 687.5)" fill="white"/>
<circle cx="12.5" cy="237.5" r="12.5" transform="rotate(-90 12.5 237.5)" fill="white"/>
<circle cx="12.5" cy="987.5" r="12.5" transform="rotate(-90 12.5 987.5)" fill="white"/>
<circle cx="12.5" cy="537.5" r="12.5" transform="rotate(-90 12.5 537.5)" fill="white"/>
<circle cx="12.5" cy="87.5" r="12.5" transform="rotate(-90 12.5 87.5)" fill="white"/>
<circle cx="12.5" cy="1250" r="12.5" transform="rotate(-90 12.5 1250)" fill="white"/>
<circle cx="12.5" cy="800" r="12.5" transform="rotate(-90 12.5 800)" fill="white"/>
<circle cx="12.5" cy="350" r="12.5" transform="rotate(-90 12.5 350)" fill="white"/>
<circle cx="12.5" cy="1100" r="12.5" transform="rotate(-90 12.5 1100)" fill="white"/>
<circle cx="12.5" cy="650" r="12.5" transform="rotate(-90 12.5 650)" fill="white"/>
<circle cx="12.5" cy="200" r="12.5" transform="rotate(-90 12.5 200)" fill="white"/>
<circle cx="12.5" cy="950" r="12.5" transform="rotate(-90 12.5 950)" fill="white"/>
<circle cx="12.5" cy="500" r="12.5" transform="rotate(-90 12.5 500)" fill="white"/>
<circle cx="12.5" cy="50" r="12.5" transform="rotate(-90 12.5 50)" fill="white"/>
<circle cx="12.5" cy="1212.5" r="12.5" transform="rotate(-90 12.5 1212.5)" fill="white"/>
<circle cx="12.5" cy="762.5" r="12.5" transform="rotate(-90 12.5 762.5)" fill="white"/>
<circle cx="12.5" cy="312.5" r="12.5" transform="rotate(-90 12.5 312.5)" fill="white"/>
<circle cx="12.5" cy="1062.5" r="12.5" transform="rotate(-90 12.5 1062.5)" fill="white"/>
<circle cx="12.5" cy="612.5" r="12.5" transform="rotate(-90 12.5 612.5)" fill="white"/>
<circle cx="12.5" cy="162.5" r="12.5" transform="rotate(-90 12.5 162.5)" fill="white"/>
<circle cx="12.5" cy="912.5" r="12.5" transform="rotate(-90 12.5 912.5)" fill="white"/>
<circle cx="12.5" cy="462.5" r="12.5" transform="rotate(-90 12.5 462.5)" fill="white"/>
<circle cx="12.5" cy="12.5" r="12.5" transform="rotate(-90 12.5 12.5)" fill="white"/>
</svg>
