<svg width="1064" height="20" viewBox="0 0 1064 20" fill="none" xmlns="http://www.w3.org/2000/svg">
<circle cx="39" cy="10" r="10" fill="white"/>
<circle cx="10" cy="10" r="10" fill="white"/>
<circle cx="387" cy="10" r="10" fill="white"/>
<circle cx="735" cy="10" r="10" fill="white"/>
<circle cx="155" cy="10" r="10" fill="white"/>
<circle cx="503" cy="10" r="10" fill="white"/>
<circle cx="851" cy="10" r="10" fill="white"/>
<circle cx="271" cy="10" r="10" fill="white"/>
<circle cx="619" cy="10" r="10" fill="white"/>
<circle cx="967" cy="10" r="10" fill="white"/>
<circle cx="68" cy="10" r="10" fill="white"/>
<circle cx="416" cy="10" r="10" fill="white"/>
<circle cx="764" cy="10" r="10" fill="white"/>
<circle cx="184" cy="10" r="10" fill="white"/>
<circle cx="532" cy="10" r="10" fill="white"/>
<circle cx="880" cy="10" r="10" fill="white"/>
<circle cx="300" cy="10" r="10" fill="white"/>
<circle cx="648" cy="10" r="10" fill="white"/>
<circle cx="996" cy="10" r="10" fill="white"/>
<circle cx="97" cy="10" r="10" fill="white"/>
<circle cx="445" cy="10" r="10" fill="white"/>
<circle cx="793" cy="10" r="10" fill="white"/>
<circle cx="213" cy="10" r="10" fill="white"/>
<circle cx="561" cy="10" r="10" fill="white"/>
<circle cx="909" cy="10" r="10" fill="white"/>
<circle cx="329" cy="10" r="10" fill="white"/>
<circle cx="677" cy="10" r="10" fill="white"/>
<circle cx="1025" cy="10" r="10" fill="white"/>
<circle cx="126" cy="10" r="10" fill="white"/>
<circle cx="474" cy="10" r="10" fill="white"/>
<circle cx="822" cy="10" r="10" fill="white"/>
<circle cx="242" cy="10" r="10" fill="white"/>
<circle cx="590" cy="10" r="10" fill="white"/>
<circle cx="938" cy="10" r="10" fill="white"/>
<circle cx="358" cy="10" r="10" fill="white"/>
<circle cx="706" cy="10" r="10" fill="white"/>
<circle cx="1054" cy="10" r="10" fill="white"/>
</svg>
