<svg width="980" height="298" viewBox="0 0 980 298" fill="none" xmlns="http://www.w3.org/2000/svg">
<path d="M67.6287 24.5C67.6287 37.7548 78.3739 48.5 91.6287 48.5C104.884 48.5 115.629 37.7548 115.629 24.5C115.629 11.2452 104.884 0.5 91.6287 0.5C78.3739 0.5 67.6287 11.2452 67.6287 24.5ZM906.128 24.5V29V24.5ZM929.319 267.673C931.072 265.911 931.064 263.062 929.302 261.309L900.587 232.749C898.825 230.996 895.975 231.004 894.223 232.766C892.47 234.528 892.478 237.378 894.24 239.13L919.765 264.517L894.378 290.042C892.625 291.804 892.633 294.653 894.395 296.406C896.157 298.158 899.006 298.151 900.759 296.388L929.319 267.673ZM91.6287 29H906.128V20H91.6287V29ZM906.128 29C928.208 29 944.257 36.3124 954.755 46.8888C965.295 57.5082 970.528 71.7041 970.441 85.9726C970.354 100.243 964.945 114.463 954.34 125.105C943.779 135.701 927.812 143 906.128 143V152C929.945 152 948.29 143.924 960.714 131.458C973.093 119.037 979.34 102.507 979.441 86.0274C979.541 69.5459 973.493 52.9918 961.143 40.5487C948.75 28.0626 930.298 20 906.128 20V29ZM906.128 143C905.739 143 905.349 143 904.959 143C904.568 143 904.176 143 903.784 143C903.391 143 902.998 143 902.604 143C902.209 143 901.814 143 901.418 143C901.022 143 900.625 143 900.228 143C899.83 143 899.432 143 899.032 143C898.633 143 898.233 143 897.832 143C897.431 143 897.029 143 896.626 143C896.223 143 895.82 143 895.415 143C895.011 143 894.606 143 894.2 143C893.794 143 893.387 143 892.979 143C892.571 143 892.163 143 891.753 143C891.344 143 890.934 143 890.522 143C890.111 143 889.7 143 889.287 143C888.874 143 888.461 143 888.046 143C887.632 143 887.217 143 886.801 143C886.385 143 885.968 143 885.551 143C885.133 143 884.715 143 884.295 143C883.876 143 883.456 143 883.035 143C882.615 143 882.193 143 881.771 143C881.348 143 880.925 143 880.501 143C880.077 143 879.652 143 879.227 143C878.801 143 878.375 143 877.948 143C877.52 143 877.092 143 876.664 143C876.235 143 875.805 143 875.375 143C874.945 143 874.514 143 874.082 143C873.65 143 873.217 143 872.784 143C872.351 143 871.916 143 871.481 143C871.046 143 870.611 143 870.174 143C869.738 143 869.3 143 868.862 143C868.424 143 867.986 143 867.546 143C867.106 143 866.666 143 866.225 143C865.784 143 865.342 143 864.9 143C864.457 143 864.014 143 863.57 143C863.125 143 862.681 143 862.235 143C861.789 143 861.343 143 860.896 143C860.449 143 860.001 143 859.553 143C859.104 143 858.655 143 858.205 143C857.755 143 857.304 143 856.852 143C856.401 143 855.949 143 855.496 143C855.043 143 854.589 143 854.135 143C853.68 143 853.225 143 852.769 143C852.313 143 851.857 143 851.399 143C850.942 143 850.484 143 850.025 143C849.567 143 849.107 143 848.647 143C848.187 143 847.726 143 847.264 143C846.803 143 846.34 143 845.877 143C845.414 143 844.951 143 844.486 143C844.022 143 843.557 143 843.091 143C842.625 143 842.159 143 841.691 143C841.224 143 840.756 143 840.288 143C839.819 143 839.35 143 838.88 143C838.41 143 837.939 143 837.468 143C836.996 143 836.524 143 836.052 143C835.579 143 835.106 143 834.632 143C834.157 143 833.683 143 833.207 143C832.732 143 832.256 143 831.779 143C831.302 143 830.825 143 830.347 143C829.869 143 829.39 143 828.91 143C828.431 143 827.951 143 827.47 143C826.989 143 826.508 143 826.026 143C825.544 143 825.061 143 824.578 143C824.094 143 823.61 143 823.126 143C822.641 143 822.156 143 821.67 143C821.184 143 820.697 143 820.21 143C819.723 143 819.235 143 818.746 143C818.258 143 817.768 143 817.279 143C816.789 143 816.298 143 815.807 143C815.316 143 814.824 143 814.332 143C813.84 143 813.347 143 812.853 143C812.359 143 811.865 143 811.37 143C810.876 143 810.38 143 809.884 143C809.388 143 808.891 143 808.394 143C807.897 143 807.399 143 806.9 143C806.401 143 805.902 143 805.403 143C804.903 143 804.402 143 803.901 143C803.4 143 802.899 143 802.397 143C801.894 143 801.392 143 800.888 143C800.385 143 799.881 143 799.376 143C798.872 143 798.367 143 797.861 143C797.355 143 796.849 143 796.342 143C795.835 143 795.327 143 794.819 143C794.311 143 793.802 143 793.293 143C792.784 143 792.274 143 791.764 143C791.253 143 790.742 143 790.231 143C789.719 143 789.207 143 788.694 143C788.181 143 787.668 143 787.154 143C786.64 143 786.126 143 785.611 143C785.096 143 784.58 143 784.064 143C783.548 143 783.031 143 782.514 143C781.997 143 781.479 143 780.961 143C780.443 143 779.924 143 779.404 143C778.885 143 778.365 143 777.844 143C777.324 143 776.803 143 776.281 143C775.759 143 775.237 143 774.715 143C774.192 143 773.669 143 773.145 143C772.621 143 772.097 143 771.572 143C771.047 143 770.522 143 769.996 143C769.47 143 768.944 143 768.417 143C767.89 143 767.362 143 766.834 143C766.306 143 765.778 143 765.249 143C764.72 143 764.19 143 763.66 143C763.13 143 762.599 143 762.068 143C761.537 143 761.006 143 760.474 143C759.941 143 759.409 143 758.876 143C758.343 143 757.809 143 757.275 143C756.741 143 756.206 143 755.671 143C755.136 143 754.6 143 754.064 143C753.528 143 752.991 143 752.454 143C751.917 143 751.38 143 750.841 143C750.303 143 749.765 143 749.226 143C748.687 143 748.147 143 747.607 143C747.067 143 746.527 143 745.986 143C745.445 143 744.903 143 744.362 143C743.82 143 743.277 143 742.734 143C742.192 143 741.648 143 741.104 143C740.561 143 740.016 143 739.472 143C738.927 143 738.382 143 737.836 143C737.291 143 736.745 143 736.198 143C735.651 143 735.104 143 734.557 143C734.01 143 733.462 143 732.913 143C732.365 143 731.816 143 731.267 143C730.718 143 730.168 143 729.618 143C729.068 143 728.517 143 727.966 143C727.415 143 726.864 143 726.312 143C725.76 143 725.208 143 724.655 143C724.102 143 723.549 143 722.995 143C722.442 143 721.888 143 721.333 143C720.779 143 720.224 143 719.669 143C719.113 143 718.558 143 718.001 143C717.445 143 716.889 143 716.332 143C715.775 143 715.217 143 714.66 143C714.102 143 713.544 143 712.985 143C712.426 143 711.867 143 711.308 143C710.749 143 710.189 143 709.629 143C709.068 143 708.508 143 707.947 143C707.386 143 706.824 143 706.262 143C705.701 143 705.138 143 704.576 143C704.013 143 703.45 143 702.887 143C702.324 143 701.76 143 701.196 143C700.632 143 700.067 143 699.502 143C698.937 143 698.372 143 697.806 143C697.241 143 696.675 143 696.108 143C695.542 143 694.975 143 694.408 143C693.841 143 693.273 143 692.706 143C692.138 143 691.569 143 691.001 143C690.432 143 689.863 143 689.294 143C688.725 143 688.155 143 687.585 143C687.015 143 686.445 143 685.874 143C685.303 143 684.732 143 684.161 143C683.589 143 683.017 143 682.445 143C681.873 143 681.301 143 680.728 143C680.155 143 679.582 143 679.008 143C678.435 143 677.861 143 677.287 143C676.713 143 676.138 143 675.564 143C674.989 143 674.414 143 673.838 143C673.263 143 672.687 143 672.111 143C671.535 143 670.958 143 670.381 143C669.805 143 669.228 143 668.65 143C668.073 143 667.495 143 666.917 143C666.339 143 665.761 143 665.182 143C664.603 143 664.024 143 663.445 143C662.866 143 662.286 143 661.706 143C661.126 143 660.546 143 659.966 143C659.385 143 658.805 143 658.224 143C657.642 143 657.061 143 656.479 143C655.898 143 655.316 143 654.734 143C654.151 143 653.569 143 652.986 143C652.403 143 651.82 143 651.237 143C650.653 143 650.07 143 649.486 143C648.902 143 648.318 143 647.733 143C647.149 143 646.564 143 645.979 143C645.394 143 644.808 143 644.223 143C643.637 143 643.051 143 642.465 143C641.879 143 641.293 143 640.706 143C640.12 143 639.533 143 638.945 143C638.358 143 637.771 143 637.183 143C636.596 143 636.008 143 635.419 143C634.831 143 634.243 143 633.654 143C633.066 143 632.477 143 631.888 143C631.298 143 630.709 143 630.119 143C629.53 143 628.94 143 628.35 143C627.76 143 627.169 143 626.579 143C625.988 143 625.397 143 624.806 143C624.215 143 623.624 143 623.032 143C622.441 143 621.849 143 621.257 143C620.665 143 620.073 143 619.481 143C618.888 143 618.296 143 617.703 143C617.11 143 616.517 143 615.924 143C615.33 143 614.737 143 614.143 143C613.55 143 612.956 143 612.362 143C611.768 143 611.173 143 610.579 143C609.984 143 609.39 143 608.795 143C608.2 143 607.605 143 607.009 143C606.414 143 605.819 143 605.223 143C604.627 143 604.031 143 603.435 143C602.839 143 602.243 143 601.647 143C601.05 143 600.454 143 599.857 143C599.26 143 598.663 143 598.066 143C597.469 143 596.871 143 596.274 143C595.676 143 595.079 143 594.481 143C593.883 143 593.285 143 592.687 143C592.089 143 591.49 143 590.892 143C590.293 143 589.695 143 589.096 143C588.497 143 587.898 143 587.299 143C586.7 143 586.1 143 585.501 143C584.901 143 584.302 143 583.702 143C583.102 143 582.502 143 581.902 143C581.302 143 580.702 143 580.102 143C579.501 143 578.901 143 578.3 143C577.699 143 577.099 143 576.498 143C575.897 143 575.296 143 574.695 143C574.093 143 573.492 143 572.891 143C572.289 143 571.688 143 571.086 143C570.484 143 569.882 143 569.28 143C568.679 143 568.076 143 567.474 143C566.872 143 566.27 143 565.667 143C565.065 143 564.462 143 563.86 143C563.257 143 562.654 143 562.052 143C561.449 143 560.846 143 560.243 143C559.64 143 559.036 143 558.433 143C557.83 143 557.226 143 556.623 143C556.019 143 555.416 143 554.812 143C554.209 143 553.605 143 553.001 143C552.397 143 551.793 143 551.189 143C550.585 143 549.981 143 549.377 143C548.773 143 548.168 143 547.564 143C546.96 143 546.355 143 545.751 143C545.146 143 544.541 143 543.937 143C543.332 143 542.727 143 542.122 143C541.518 143 540.913 143 540.308 143C539.703 143 539.098 143 538.493 143C537.888 143 537.283 143 536.677 143C536.072 143 535.467 143 534.862 143C534.256 143 533.651 143 533.045 143C532.44 143 531.835 143 531.229 143C530.623 143 530.018 143 529.412 143C528.807 143 528.201 143 527.595 143C526.99 143 526.384 143 525.778 143C525.172 143 524.566 143 523.961 143C523.355 143 522.749 143 522.143 143C521.537 143 520.931 143 520.325 143C519.719 143 519.113 143 518.507 143C517.901 143 517.295 143 516.689 143C516.083 143 515.476 143 514.87 143C514.264 143 513.658 143 513.052 143C512.446 143 511.84 143 511.233 143C510.627 143 510.021 143 509.415 143C508.809 143 508.202 143 507.596 143C506.99 143 506.384 143 505.777 143C505.171 143 504.565 143 503.959 143C503.353 143 502.746 143 502.14 143C501.534 143 500.928 143 500.321 143C499.715 143 499.109 143 498.503 143C497.897 143 497.291 143 496.684 143C496.078 143 495.472 143 494.866 143C494.26 143 493.654 143 493.048 143C492.442 143 491.836 143 491.23 143C490.624 143 490.018 143 489.412 143C488.806 143 488.2 143 487.594 143C486.988 143 486.382 143 485.776 143C485.171 143 484.565 143 483.959 143C483.353 143 482.748 143 482.142 143C481.536 143 480.931 143 480.325 143C479.72 143 479.114 143 478.509 143C477.903 143 477.298 143 476.693 143C476.087 143 475.482 143 474.877 143C474.271 143 473.666 143 473.061 143C472.456 143 471.851 143 471.246 143C470.641 143 470.036 143 469.431 143C468.826 143 468.222 143 467.617 143C467.012 143 466.408 143 465.803 143C465.198 143 464.594 143 463.99 143C463.385 143 462.781 143 462.177 143C461.572 143 460.968 143 460.364 143C459.76 143 459.156 143 458.552 143C457.948 143 457.344 143 456.741 143C456.137 143 455.533 143 454.93 143C454.326 143 453.723 143 453.12 143C452.516 143 451.913 143 451.31 143C450.707 143 450.104 143 449.501 143C448.898 143 448.295 143 447.692 143C447.09 143 446.487 143 445.885 143C445.282 143 444.68 143 444.078 143C443.475 143 442.873 143 442.271 143C441.669 143 441.067 143 440.466 143C439.864 143 439.262 143 438.661 143C438.059 143 437.458 143 436.857 143C436.255 143 435.654 143 435.053 143C434.452 143 433.851 143 433.251 143C432.65 143 432.049 143 431.449 143C430.849 143 430.248 143 429.648 143C429.048 143 428.448 143 427.848 143C427.248 143 426.649 143 426.049 143C425.45 143 424.85 143 424.251 143C423.652 143 423.053 143 422.454 143C421.855 143 421.256 143 420.658 143C420.059 143 419.461 143 418.862 143C418.264 143 417.666 143 417.068 143C416.47 143 415.872 143 415.275 143C414.677 143 414.08 143 413.482 143C412.885 143 412.288 143 411.691 143C411.094 143 410.498 143 409.901 143C409.305 143 408.708 143 408.112 143C407.516 143 406.92 143 406.324 143C405.729 143 405.133 143 404.538 143C403.942 143 403.347 143 402.752 143C402.157 143 401.562 143 400.968 143C400.373 143 399.779 143 399.184 143C398.59 143 397.996 143 397.402 143C396.809 143 396.215 143 395.622 143C395.028 143 394.435 143 393.842 143C393.249 143 392.657 143 392.064 143C391.472 143 390.879 143 390.287 143C389.695 143 389.103 143 388.512 143C387.92 143 387.329 143 386.738 143C386.147 143 385.556 143 384.965 143C384.374 143 383.784 143 383.194 143C382.603 143 382.013 143 381.424 143C380.834 143 380.244 143 379.655 143C379.066 143 378.477 143 377.888 143C377.299 143 376.711 143 376.122 143C375.534 143 374.946 143 374.358 143C373.77 143 373.183 143 372.596 143C372.008 143 371.421 143 370.835 143C370.248 143 369.661 143 369.075 143C368.489 143 367.903 143 367.317 143C366.731 143 366.146 143 365.561 143C364.976 143 364.391 143 363.806 143C363.221 143 362.637 143 362.053 143C361.469 143 360.885 143 360.302 143C359.718 143 359.135 143 358.552 143C357.969 143 357.386 143 356.804 143C356.222 143 355.639 143 355.058 143C354.476 143 353.894 143 353.313 143C352.732 143 352.151 143 351.57 143C350.99 143 350.409 143 349.829 143C349.249 143 348.67 143 348.09 143C347.511 143 346.932 143 346.353 143C345.774 143 345.196 143 344.617 143C344.039 143 343.461 143 342.884 143C342.306 143 341.729 143 341.152 143C340.575 143 339.999 143 339.422 143C338.846 143 338.27 143 337.694 143C337.119 143 336.544 143 335.969 143C335.394 143 334.819 143 334.245 143C333.67 143 333.096 143 332.523 143C331.949 143 331.376 143 330.803 143C330.23 143 329.657 143 329.085 143C328.513 143 327.941 143 327.369 143C326.797 143 326.226 143 325.655 143C325.084 143 324.514 143 323.944 143C323.374 143 322.804 143 322.234 143C321.665 143 321.096 143 320.527 143C319.958 143 319.39 143 318.822 143C318.254 143 317.686 143 317.119 143C316.551 143 315.984 143 315.418 143C314.851 143 314.285 143 313.719 143C313.153 143 312.588 143 312.023 143C311.458 143 310.893 143 310.329 143C309.764 143 309.2 143 308.637 143C308.073 143 307.51 143 306.947 143C306.385 143 305.822 143 305.26 143C304.698 143 304.137 143 303.576 143C303.014 143 302.453 143 301.893 143C301.333 143 300.773 143 300.213 143C299.653 143 299.094 143 298.535 143C297.977 143 297.418 143 296.86 143C296.302 143 295.745 143 295.187 143C294.63 143 294.074 143 293.517 143C292.961 143 292.405 143 291.849 143C291.294 143 290.739 143 290.184 143C289.63 143 289.075 143 288.522 143C287.968 143 287.414 143 286.861 143C286.308 143 285.756 143 285.204 143C284.652 143 284.1 143 283.549 143C282.998 143 282.447 143 281.896 143C281.346 143 280.796 143 280.247 143C279.697 143 279.148 143 278.6 143C278.051 143 277.503 143 276.955 143C276.408 143 275.861 143 275.314 143C274.767 143 274.221 143 273.675 143C273.129 143 272.584 143 272.039 143C271.494 143 270.949 143 270.405 143C269.861 143 269.318 143 268.775 143C268.232 143 267.689 143 267.147 143C266.605 143 266.063 143 265.522 143C264.981 143 264.44 143 263.9 143C263.359 143 262.82 143 262.28 143C261.741 143 261.202 143 260.664 143C260.126 143 259.588 143 259.051 143C258.513 143 257.976 143 257.44 143C256.904 143 256.368 143 255.833 143C255.297 143 254.762 143 254.228 143C253.694 143 253.16 143 252.626 143C252.093 143 251.56 143 251.028 143C250.495 143 249.964 143 249.432 143C248.901 143 248.37 143 247.84 143C247.309 143 246.78 143 246.25 143C245.721 143 245.192 143 244.664 143C244.136 143 243.608 143 243.081 143C242.554 143 242.027 143 241.501 143C240.975 143 240.449 143 239.924 143C239.399 143 238.874 143 238.35 143C237.826 143 237.303 143 236.78 143C236.257 143 235.734 143 235.213 143C234.691 143 234.169 143 233.649 143C233.128 143 232.608 143 232.088 143C231.568 143 231.049 143 230.53 143C230.012 143 229.494 143 228.976 143C228.459 143 227.942 143 227.425 143C226.909 143 226.393 143 225.878 143C225.363 143 224.848 143 224.334 143C223.82 143 223.306 143 222.793 143C222.28 143 221.768 143 221.256 143C220.744 143 220.233 143 219.722 143C219.211 143 218.701 143 218.192 143C217.682 143 217.173 143 216.665 143C216.156 143 215.648 143 215.141 143C214.634 143 214.127 143 213.621 143C213.115 143 212.61 143 212.105 143C211.6 143 211.096 143 210.592 143C210.089 143 209.585 143 209.083 143C208.58 143 208.079 143 207.577 143C207.076 143 206.575 143 206.075 143C205.575 143 205.076 143 204.577 143C204.078 143 203.58 143 203.082 143C202.585 143 202.088 143 201.591 143C201.095 143 200.599 143 200.104 143C199.609 143 199.114 143 198.62 143C198.126 143 197.633 143 197.14 143C196.648 143 196.156 143 195.664 143C195.173 143 194.682 143 194.192 143C193.702 143 193.212 143 192.724 143C192.235 143 191.747 143 191.259 143C190.771 143 190.284 143 189.798 143C189.312 143 188.826 143 188.341 143C187.856 143 187.372 143 186.888 143C186.405 143 185.921 143 185.439 143C184.957 143 184.475 143 183.994 143C183.513 143 183.032 143 182.553 143C182.073 143 181.594 143 181.115 143C180.637 143 180.159 143 179.682 143C179.205 143 178.729 143 178.253 143C177.777 143 177.302 143 176.828 143C176.353 143 175.88 143 175.407 143C174.934 143 174.461 143 173.99 143C173.518 143 173.047 143 172.577 143C172.106 143 171.637 143 171.168 143C170.699 143 170.231 143 169.763 143C169.295 143 168.829 143 168.362 143C167.896 143 167.431 143 166.966 143C166.501 143 166.037 143 165.574 143C165.111 143 164.648 143 164.186 143C163.724 143 163.263 143 162.802 143C162.342 143 161.882 143 161.423 143C160.964 143 160.505 143 160.048 143C159.59 143 159.133 143 158.677 143C158.221 143 157.765 143 157.31 143C156.856 143 156.402 143 155.948 143C155.495 143 155.042 143 154.591 143C154.139 143 153.688 143 153.237 143C152.787 143 152.337 143 151.888 143C151.439 143 150.991 143 150.544 143C150.096 143 149.65 143 149.204 143C148.758 143 148.312 143 147.868 143C147.424 143 146.98 143 146.537 143C146.094 143 145.652 143 145.21 143C144.769 143 144.328 143 143.888 143C143.448 143 143.009 143 142.571 143C142.132 143 141.695 143 141.258 143C140.821 143 140.385 143 139.95 143C139.514 143 139.08 143 138.646 143C138.212 143 137.779 143 137.347 143C136.915 143 136.483 143 136.053 143C135.622 143 135.192 143 134.763 143C134.334 143 133.905 143 133.478 143C133.05 143 132.624 143 132.198 143C131.772 143 131.346 143 130.922 143C130.498 143 130.074 143 129.651 143C129.228 143 128.806 143 128.385 143C127.964 143 127.544 143 127.124 143C126.705 143 126.286 143 125.868 143C125.45 143 125.033 143 124.616 143C124.2 143 123.784 143 123.37 143C122.955 143 122.541 143 122.128 143C121.715 143 121.303 143 120.891 143C120.48 143 120.069 143 119.659 143C119.25 143 118.841 143 118.432 143C118.024 143 117.617 143 117.21 143C116.804 143 116.398 143 115.994 143C115.589 143 115.185 143 114.782 143C114.378 143 113.976 143 113.575 143C113.173 143 112.773 143 112.373 143C111.973 143 111.574 143 111.176 143C110.778 143 110.381 143 109.984 143C109.588 143 109.193 143 108.798 143C108.403 143 108.01 143 107.617 143C107.224 143 106.832 143 106.44 143C106.049 143 105.659 143 105.269 143C104.88 143 104.491 143 104.103 143C103.716 143 103.329 143 102.943 143C102.557 143 102.172 143 101.787 143C101.403 143 101.02 143 100.637 143C100.255 143 99.8733 143 99.4926 143C99.1119 143 98.732 143 98.3531 143C97.9741 143 97.5961 143 97.2189 143C96.8417 143 96.4655 143 96.0901 143C95.7147 143 95.3402 143 94.9666 143C94.593 143 94.2203 143 93.8486 143C93.4768 143 93.1059 143 92.7359 143C92.3659 143 91.9969 143 91.6287 143V152C91.9969 152 92.3659 152 92.7359 152C93.1059 152 93.4768 152 93.8486 152C94.2203 152 94.593 152 94.9666 152C95.3402 152 95.7147 152 96.0901 152C96.4655 152 96.8417 152 97.2189 152C97.5961 152 97.9741 152 98.3531 152C98.732 152 99.1119 152 99.4926 152C99.8733 152 100.255 152 100.637 152C101.02 152 101.403 152 101.787 152C102.172 152 102.557 152 102.943 152C103.329 152 103.716 152 104.103 152C104.491 152 104.88 152 105.269 152C105.659 152 106.049 152 106.44 152C106.832 152 107.224 152 107.617 152C108.01 152 108.403 152 108.798 152C109.193 152 109.588 152 109.984 152C110.381 152 110.778 152 111.176 152C111.574 152 111.973 152 112.373 152C112.773 152 113.173 152 113.575 152C113.976 152 114.378 152 114.782 152C115.185 152 115.589 152 115.994 152C116.398 152 116.804 152 117.21 152C117.617 152 118.024 152 118.432 152C118.841 152 119.25 152 119.659 152C120.069 152 120.48 152 120.891 152C121.303 152 121.715 152 122.128 152C122.541 152 122.955 152 123.37 152C123.784 152 124.2 152 124.616 152C125.033 152 125.45 152 125.868 152C126.286 152 126.705 152 127.124 152C127.544 152 127.964 152 128.385 152C128.806 152 129.228 152 129.651 152C130.074 152 130.498 152 130.922 152C131.346 152 131.772 152 132.198 152C132.624 152 133.05 152 133.478 152C133.905 152 134.334 152 134.763 152C135.192 152 135.622 152 136.053 152C136.483 152 136.915 152 137.347 152C137.779 152 138.212 152 138.646 152C139.08 152 139.514 152 139.95 152C140.385 152 140.821 152 141.258 152C141.695 152 142.132 152 142.571 152C143.009 152 143.448 152 143.888 152C144.328 152 144.769 152 145.21 152C145.652 152 146.094 152 146.537 152C146.98 152 147.424 152 147.868 152C148.312 152 148.758 152 149.204 152C149.65 152 150.096 152 150.544 152C150.991 152 151.439 152 151.888 152C152.337 152 152.787 152 153.237 152C153.688 152 154.139 152 154.591 152C155.042 152 155.495 152 155.948 152C156.402 152 156.856 152 157.31 152C157.765 152 158.221 152 158.677 152C159.133 152 159.59 152 160.048 152C160.505 152 160.964 152 161.423 152C161.882 152 162.342 152 162.802 152C163.263 152 163.724 152 164.186 152C164.648 152 165.111 152 165.574 152C166.037 152 166.501 152 166.966 152C167.431 152 167.896 152 168.362 152C168.829 152 169.295 152 169.763 152C170.231 152 170.699 152 171.168 152C171.637 152 172.106 152 172.577 152C173.047 152 173.518 152 173.99 152C174.461 152 174.934 152 175.407 152C175.88 152 176.353 152 176.828 152C177.302 152 177.777 152 178.253 152C178.729 152 179.205 152 179.682 152C180.159 152 180.637 152 181.115 152C181.594 152 182.073 152 182.553 152C183.032 152 183.513 152 183.994 152C184.475 152 184.957 152 185.439 152C185.921 152 186.405 152 186.888 152C187.372 152 187.856 152 188.341 152C188.826 152 189.312 152 189.798 152C190.284 152 190.771 152 191.259 152C191.747 152 192.235 152 192.724 152C193.212 152 193.702 152 194.192 152C194.682 152 195.173 152 195.664 152C196.156 152 196.648 152 197.14 152C197.633 152 198.126 152 198.62 152C199.114 152 199.609 152 200.104 152C200.599 152 201.095 152 201.591 152C202.088 152 202.585 152 203.082 152C203.58 152 204.078 152 204.577 152C205.076 152 205.575 152 206.075 152C206.575 152 207.076 152 207.577 152C208.079 152 208.58 152 209.083 152C209.585 152 210.089 152 210.592 152C211.096 152 211.6 152 212.105 152C212.61 152 213.115 152 213.621 152C214.127 152 214.634 152 215.141 152C215.648 152 216.156 152 216.665 152C217.173 152 217.682 152 218.192 152C218.701 152 219.211 152 219.722 152C220.233 152 220.744 152 221.256 152C221.768 152 222.28 152 222.793 152C223.306 152 223.82 152 224.334 152C224.848 152 225.363 152 225.878 152C226.393 152 226.909 152 227.425 152C227.942 152 228.459 152 228.976 152C229.494 152 230.012 152 230.53 152C231.049 152 231.568 152 232.088 152C232.608 152 233.128 152 233.649 152C234.169 152 234.691 152 235.213 152C235.734 152 236.257 152 236.78 152C237.303 152 237.826 152 238.35 152C238.874 152 239.399 152 239.924 152C240.449 152 240.975 152 241.501 152C242.027 152 242.554 152 243.081 152C243.608 152 244.136 152 244.664 152C245.192 152 245.721 152 246.25 152C246.78 152 247.309 152 247.84 152C248.37 152 248.901 152 249.432 152C249.964 152 250.495 152 251.028 152C251.56 152 252.093 152 252.626 152C253.16 152 253.694 152 254.228 152C254.762 152 255.297 152 255.833 152C256.368 152 256.904 152 257.44 152C257.976 152 258.513 152 259.051 152C259.588 152 260.126 152 260.664 152C261.202 152 261.741 152 262.28 152C262.82 152 263.359 152 263.9 152C264.44 152 264.981 152 265.522 152C266.063 152 266.605 152 267.147 152C267.689 152 268.232 152 268.775 152C269.318 152 269.861 152 270.405 152C270.949 152 271.494 152 272.039 152C272.584 152 273.129 152 273.675 152C274.221 152 274.767 152 275.314 152C275.861 152 276.408 152 276.955 152C277.503 152 278.051 152 278.6 152C279.148 152 279.697 152 280.247 152C280.796 152 281.346 152 281.896 152C282.447 152 282.998 152 283.549 152C284.1 152 284.652 152 285.204 152C285.756 152 286.308 152 286.861 152C287.414 152 287.968 152 288.522 152C289.075 152 289.63 152 290.184 152C290.739 152 291.294 152 291.849 152C292.405 152 292.961 152 293.517 152C294.074 152 294.63 152 295.187 152C295.745 152 296.302 152 296.86 152C297.418 152 297.977 152 298.535 152C299.094 152 299.653 152 300.213 152C300.773 152 301.333 152 301.893 152C302.453 152 303.014 152 303.576 152C304.137 152 304.698 152 305.26 152C305.822 152 306.385 152 306.947 152C307.51 152 308.073 152 308.637 152C309.2 152 309.764 152 310.329 152C310.893 152 311.458 152 312.023 152C312.588 152 313.153 152 313.719 152C314.285 152 314.851 152 315.418 152C315.984 152 316.551 152 317.119 152C317.686 152 318.254 152 318.822 152C319.39 152 319.958 152 320.527 152C321.096 152 321.665 152 322.234 152C322.804 152 323.374 152 323.944 152C324.514 152 325.084 152 325.655 152C326.226 152 326.797 152 327.369 152C327.941 152 328.513 152 329.085 152C329.657 152 330.23 152 330.803 152C331.376 152 331.949 152 332.523 152C333.096 152 333.67 152 334.245 152C334.819 152 335.394 152 335.969 152C336.544 152 337.119 152 337.694 152C338.27 152 338.846 152 339.422 152C339.999 152 340.575 152 341.152 152C341.729 152 342.306 152 342.884 152C343.461 152 344.039 152 344.617 152C345.196 152 345.774 152 346.353 152C346.932 152 347.511 152 348.09 152C348.67 152 349.249 152 349.829 152C350.409 152 350.99 152 351.57 152C352.151 152 352.732 152 353.313 152C353.894 152 354.476 152 355.058 152C355.639 152 356.222 152 356.804 152C357.386 152 357.969 152 358.552 152C359.135 152 359.718 152 360.302 152C360.885 152 361.469 152 362.053 152C362.637 152 363.221 152 363.806 152C364.391 152 364.976 152 365.561 152C366.146 152 366.731 152 367.317 152C367.903 152 368.489 152 369.075 152C369.661 152 370.248 152 370.835 152C371.421 152 372.008 152 372.596 152C373.183 152 373.77 152 374.358 152C374.946 152 375.534 152 376.122 152C376.711 152 377.299 152 377.888 152C378.477 152 379.066 152 379.655 152C380.244 152 380.834 152 381.424 152C382.013 152 382.603 152 383.194 152C383.784 152 384.374 152 384.965 152C385.556 152 386.147 152 386.738 152C387.329 152 387.92 152 388.512 152C389.103 152 389.695 152 390.287 152C390.879 152 391.472 152 392.064 152C392.657 152 393.249 152 393.842 152C394.435 152 395.028 152 395.622 152C396.215 152 396.809 152 397.402 152C397.996 152 398.59 152 399.184 152C399.779 152 400.373 152 400.968 152C401.562 152 402.157 152 402.752 152C403.347 152 403.942 152 404.538 152C405.133 152 405.729 152 406.324 152C406.92 152 407.516 152 408.112 152C408.708 152 409.305 152 409.901 152C410.498 152 411.094 152 411.691 152C412.288 152 412.885 152 413.482 152C414.08 152 414.677 152 415.275 152C415.872 152 416.47 152 417.068 152C417.666 152 418.264 152 418.862 152C419.461 152 420.059 152 420.658 152C421.256 152 421.855 152 422.454 152C423.053 152 423.652 152 424.251 152C424.85 152 425.45 152 426.049 152C426.649 152 427.248 152 427.848 152C428.448 152 429.048 152 429.648 152C430.248 152 430.849 152 431.449 152C432.049 152 432.65 152 433.251 152C433.851 152 434.452 152 435.053 152C435.654 152 436.255 152 436.857 152C437.458 152 438.059 152 438.661 152C439.262 152 439.864 152 440.466 152C441.067 152 441.669 152 442.271 152C442.873 152 443.475 152 444.078 152C444.68 152 445.282 152 445.885 152C446.487 152 447.09 152 447.692 152C448.295 152 448.898 152 449.501 152C450.104 152 450.707 152 451.31 152C451.913 152 452.516 152 453.12 152C453.723 152 454.326 152 454.93 152C455.533 152 456.137 152 456.741 152C457.344 152 457.948 152 458.552 152C459.156 152 459.76 152 460.364 152C460.968 152 461.572 152 462.177 152C462.781 152 463.385 152 463.99 152C464.594 152 465.198 152 465.803 152C466.408 152 467.012 152 467.617 152C468.222 152 468.826 152 469.431 152C470.036 152 470.641 152 471.246 152C471.851 152 472.456 152 473.061 152C473.666 152 474.271 152 474.877 152C475.482 152 476.087 152 476.693 152C477.298 152 477.903 152 478.509 152C479.114 152 479.72 152 480.325 152C480.931 152 481.536 152 482.142 152C482.748 152 483.353 152 483.959 152C484.565 152 485.171 152 485.776 152C486.382 152 486.988 152 487.594 152C488.2 152 488.806 152 489.412 152C490.018 152 490.624 152 491.23 152C491.836 152 492.442 152 493.048 152C493.654 152 494.26 152 494.866 152C495.472 152 496.078 152 496.684 152C497.291 152 497.897 152 498.503 152C499.109 152 499.715 152 500.321 152C500.928 152 501.534 152 502.14 152C502.746 152 503.353 152 503.959 152C504.565 152 505.171 152 505.777 152C506.384 152 506.99 152 507.596 152C508.202 152 508.809 152 509.415 152C510.021 152 510.627 152 511.233 152C511.84 152 512.446 152 513.052 152C513.658 152 514.264 152 514.87 152C515.476 152 516.083 152 516.689 152C517.295 152 517.901 152 518.507 152C519.113 152 519.719 152 520.325 152C520.931 152 521.537 152 522.143 152C522.749 152 523.355 152 523.961 152C524.566 152 525.172 152 525.778 152C526.384 152 526.99 152 527.595 152C528.201 152 528.807 152 529.412 152C530.018 152 530.623 152 531.229 152C531.835 152 532.44 152 533.045 152C533.651 152 534.256 152 534.862 152C535.467 152 536.072 152 536.677 152C537.283 152 537.888 152 538.493 152C539.098 152 539.703 152 540.308 152C540.913 152 541.518 152 542.122 152C542.727 152 543.332 152 543.937 152C544.541 152 545.146 152 545.751 152C546.355 152 546.96 152 547.564 152C548.168 152 548.773 152 549.377 152C549.981 152 550.585 152 551.189 152C551.793 152 552.397 152 553.001 152C553.605 152 554.209 152 554.812 152C555.416 152 556.019 152 556.623 152C557.226 152 557.83 152 558.433 152C559.036 152 559.64 152 560.243 152C560.846 152 561.449 152 562.052 152C562.654 152 563.257 152 563.86 152C564.462 152 565.065 152 565.667 152C566.27 152 566.872 152 567.474 152C568.076 152 568.679 152 569.28 152C569.882 152 570.484 152 571.086 152C571.688 152 572.289 152 572.891 152C573.492 152 574.093 152 574.695 152C575.296 152 575.897 152 576.498 152C577.099 152 577.699 152 578.3 152C578.901 152 579.501 152 580.102 152C580.702 152 581.302 152 581.902 152C582.502 152 583.102 152 583.702 152C584.302 152 584.901 152 585.501 152C586.1 152 586.7 152 587.299 152C587.898 152 588.497 152 589.096 152C589.695 152 590.293 152 590.892 152C591.49 152 592.089 152 592.687 152C593.285 152 593.883 152 594.481 152C595.079 152 595.676 152 596.274 152C596.871 152 597.469 152 598.066 152C598.663 152 599.26 152 599.857 152C600.454 152 601.05 152 601.647 152C602.243 152 602.839 152 603.435 152C604.031 152 604.627 152 605.223 152C605.819 152 606.414 152 607.009 152C607.605 152 608.2 152 608.795 152C609.39 152 609.984 152 610.579 152C611.173 152 611.768 152 612.362 152C612.956 152 613.55 152 614.143 152C614.737 152 615.33 152 615.924 152C616.517 152 617.11 152 617.703 152C618.296 152 618.888 152 619.481 152C620.073 152 620.665 152 621.257 152C621.849 152 622.441 152 623.032 152C623.624 152 624.215 152 624.806 152C625.397 152 625.988 152 626.579 152C627.169 152 627.76 152 628.35 152C628.94 152 629.53 152 630.119 152C630.709 152 631.298 152 631.888 152C632.477 152 633.066 152 633.654 152C634.243 152 634.831 152 635.419 152C636.008 152 636.596 152 637.183 152C637.771 152 638.358 152 638.945 152C639.533 152 640.12 152 640.706 152C641.293 152 641.879 152 642.465 152C643.051 152 643.637 152 644.223 152C644.808 152 645.394 152 645.979 152C646.564 152 647.149 152 647.733 152C648.318 152 648.902 152 649.486 152C650.07 152 650.653 152 651.237 152C651.82 152 652.403 152 652.986 152C653.569 152 654.151 152 654.734 152C655.316 152 655.898 152 656.479 152C657.061 152 657.642 152 658.224 152C658.805 152 659.385 152 659.966 152C660.546 152 661.126 152 661.706 152C662.286 152 662.866 152 663.445 152C664.024 152 664.603 152 665.182 152C665.761 152 666.339 152 666.917 152C667.495 152 668.073 152 668.65 152C669.228 152 669.805 152 670.381 152C670.958 152 671.535 152 672.111 152C672.687 152 673.263 152 673.838 152C674.414 152 674.989 152 675.564 152C676.138 152 676.713 152 677.287 152C677.861 152 678.435 152 679.008 152C679.582 152 680.155 152 680.728 152C681.301 152 681.873 152 682.445 152C683.017 152 683.589 152 684.161 152C684.732 152 685.303 152 685.874 152C686.445 152 687.015 152 687.585 152C688.155 152 688.725 152 689.294 152C689.863 152 690.432 152 691.001 152C691.569 152 692.138 152 692.706 152C693.273 152 693.841 152 694.408 152C694.975 152 695.542 152 696.108 152C696.675 152 697.241 152 697.806 152C698.372 152 698.937 152 699.502 152C700.067 152 700.632 152 701.196 152C701.76 152 702.324 152 702.887 152C703.45 152 704.013 152 704.576 152C705.138 152 705.701 152 706.262 152C706.824 152 707.386 152 707.947 152C708.508 152 709.068 152 709.629 152C710.189 152 710.749 152 711.308 152C711.867 152 712.426 152 712.985 152C713.544 152 714.102 152 714.66 152C715.217 152 715.775 152 716.332 152C716.889 152 717.445 152 718.001 152C718.558 152 719.113 152 719.669 152C720.224 152 720.779 152 721.333 152C721.888 152 722.442 152 722.995 152C723.549 152 724.102 152 724.655 152C725.208 152 725.76 152 726.312 152C726.864 152 727.415 152 727.966 152C728.517 152 729.068 152 729.618 152C730.168 152 730.718 152 731.267 152C731.816 152 732.365 152 732.913 152C733.462 152 734.01 152 734.557 152C735.104 152 735.651 152 736.198 152C736.745 152 737.291 152 737.836 152C738.382 152 738.927 152 739.472 152C740.016 152 740.561 152 741.104 152C741.648 152 742.192 152 742.734 152C743.277 152 743.82 152 744.362 152C744.903 152 745.445 152 745.986 152C746.527 152 747.067 152 747.607 152C748.147 152 748.687 152 749.226 152C749.765 152 750.303 152 750.841 152C751.38 152 751.917 152 752.454 152C752.991 152 753.528 152 754.064 152C754.6 152 755.136 152 755.671 152C756.206 152 756.741 152 757.275 152C757.809 152 758.343 152 758.876 152C759.409 152 759.941 152 760.474 152C761.006 152 761.537 152 762.068 152C762.599 152 763.13 152 763.66 152C764.19 152 764.72 152 765.249 152C765.778 152 766.306 152 766.834 152C767.362 152 767.89 152 768.417 152C768.944 152 769.47 152 769.996 152C770.522 152 771.047 152 771.572 152C772.097 152 772.621 152 773.145 152C773.669 152 774.192 152 774.715 152C775.237 152 775.759 152 776.281 152C776.803 152 777.324 152 777.844 152C778.365 152 778.885 152 779.404 152C779.924 152 780.443 152 780.961 152C781.479 152 781.997 152 782.514 152C783.031 152 783.548 152 784.064 152C784.58 152 785.096 152 785.611 152C786.126 152 786.64 152 787.154 152C787.668 152 788.181 152 788.694 152C789.207 152 789.719 152 790.231 152C790.742 152 791.253 152 791.764 152C792.274 152 792.784 152 793.293 152C793.802 152 794.311 152 794.819 152C795.327 152 795.835 152 796.342 152C796.849 152 797.355 152 797.861 152C798.367 152 798.872 152 799.376 152C799.881 152 800.385 152 800.888 152C801.392 152 801.894 152 802.397 152C802.899 152 803.4 152 803.901 152C804.402 152 804.903 152 805.403 152C805.902 152 806.401 152 806.9 152C807.399 152 807.897 152 808.394 152C808.891 152 809.388 152 809.884 152C810.38 152 810.876 152 811.37 152C811.865 152 812.359 152 812.853 152C813.347 152 813.84 152 814.332 152C814.824 152 815.316 152 815.807 152C816.298 152 816.789 152 817.279 152C817.768 152 818.258 152 818.746 152C819.235 152 819.723 152 820.21 152C820.697 152 821.184 152 821.67 152C822.156 152 822.641 152 823.126 152C823.61 152 824.094 152 824.578 152C825.061 152 825.544 152 826.026 152C826.508 152 826.989 152 827.47 152C827.951 152 828.431 152 828.91 152C829.39 152 829.869 152 830.347 152C830.825 152 831.302 152 831.779 152C832.256 152 832.732 152 833.207 152C833.683 152 834.157 152 834.632 152C835.106 152 835.579 152 836.052 152C836.524 152 836.996 152 837.468 152C837.939 152 838.41 152 838.88 152C839.35 152 839.819 152 840.288 152C840.756 152 841.224 152 841.691 152C842.159 152 842.625 152 843.091 152C843.557 152 844.022 152 844.486 152C844.951 152 845.414 152 845.877 152C846.34 152 846.803 152 847.264 152C847.726 152 848.187 152 848.647 152C849.107 152 849.567 152 850.025 152C850.484 152 850.942 152 851.399 152C851.857 152 852.313 152 852.769 152C853.225 152 853.68 152 854.135 152C854.589 152 855.043 152 855.496 152C855.949 152 856.401 152 856.852 152C857.304 152 857.755 152 858.205 152C858.655 152 859.104 152 859.553 152C860.001 152 860.449 152 860.896 152C861.343 152 861.789 152 862.235 152C862.681 152 863.125 152 863.57 152C864.014 152 864.457 152 864.9 152C865.342 152 865.784 152 866.225 152C866.666 152 867.106 152 867.546 152C867.986 152 868.424 152 868.862 152C869.3 152 869.738 152 870.174 152C870.611 152 871.046 152 871.481 152C871.916 152 872.351 152 872.784 152C873.217 152 873.65 152 874.082 152C874.514 152 874.945 152 875.375 152C875.805 152 876.235 152 876.664 152C877.092 152 877.52 152 877.948 152C878.375 152 878.801 152 879.227 152C879.652 152 880.077 152 880.501 152C880.925 152 881.348 152 881.771 152C882.193 152 882.615 152 883.035 152C883.456 152 883.876 152 884.295 152C884.715 152 885.133 152 885.551 152C885.968 152 886.385 152 886.801 152C887.217 152 887.632 152 888.046 152C888.461 152 888.874 152 889.287 152C889.7 152 890.111 152 890.522 152C890.934 152 891.344 152 891.753 152C892.163 152 892.571 152 892.979 152C893.387 152 893.794 152 894.2 152C894.606 152 895.011 152 895.415 152C895.82 152 896.223 152 896.626 152C897.029 152 897.431 152 897.832 152C898.233 152 898.633 152 899.032 152C899.432 152 899.83 152 900.228 152C900.625 152 901.022 152 901.418 152C901.814 152 902.209 152 902.604 152C902.998 152 903.391 152 903.784 152C904.176 152 904.568 152 904.959 152C905.349 152 905.739 152 906.128 152V143ZM91.6287 143C31.9002 143 0.0826101 173.187 0.504022 206.058C0.923754 238.797 33.3389 269 91.6287 269V260C35.9184 260 9.83354 231.703 9.50328 205.942C9.17471 180.313 34.3571 152 91.6287 152V143ZM91.6287 269C314.819 269 740.966 269.5 926.141 269L926.116 260C740.957 260.5 314.845 260 91.6287 260V269Z" fill="#DCE359"/>
</svg>
